# xmcd CD database file
#
# Track frame offsets:
#	150
#	19231
#	31217
#	46236
#	73744
#	85674
#	103629
#	137152
#
# Disc length: 2054 seconds
#
# Revision: 1
# Processed by: cddbd v1.5.2PL0 Copyright (c) Steve Scherf et al.
# Submitted via: CDex 1.77
#
DISCID=63080408
DTITLE=Livin' Blues - Bamboozle
DYEAR=1971
DGENRE=Blues
TTITLE0=L.B.Boogie
TTITLE1=Sunrise
TTITLE2=Keep On
TTITLE3=Hitch-Hikin'
TTITLE4=Bamboozle Song 
TTITLE5=Overture
TTITLE6=Black Night
TTITLE7=Big City Man
EXTD=YEAR: 1971
EXTT0=
EXTT1=
EXTT2=
EXTT3=
EXTT4=
EXTT5=
EXTT6=
EXTT7=
PLAYORDER=
